HIERARCHY
ROOT Hips
{
	OFFSET -0.001795 -0.223333 0.028219
	CHANNELS 6 Xposition Yposition Zposition Zrotation Yrotation Xrotation 
	JOINT LeftUpLeg
	{
		OFFSET 0.069520 -0.091406 -0.006815
		CHANNELS 3 Zrotation Yrotation Xrotation
		JOINT LeftLeg
		{
			OFFSET 0.034277 -0.375199 -0.004496
			CHANNELS 3 Zrotation Yrotation Xrotation
			JOINT LeftFoot
			{
				OFFSET -0.013596 -0.397961 -0.043693
				CHANNELS 3 Zrotation Yrotation Xrotation
				JOINT LeftToe
				{
					OFFSET 0.026358 -0.055791 0.119288
					CHANNELS 3 Zrotation Yrotation Xrotation
					End Site
					{
						OFFSET 0.000000 0.000000 0.000000
					}
				}
			}
		}
	}
	JOINT RightUpLeg
	{
		OFFSET -0.067670 -0.090522 -0.004320
		CHANNELS 3 Zrotation Yrotation Xrotation
		JOINT RightLeg
		{
			OFFSET -0.038290 -0.382569 -0.008850
			CHANNELS 3 Zrotation Yrotation Xrotation
			JOINT RightFoot
			{
				OFFSET 0.015774 -0.398415 -0.042312
				CHANNELS 3 Zrotation Yrotation Xrotation
				JOINT RightToe
				{
					OFFSET -0.025372 -0.048144 0.123348
					CHANNELS 3 Zrotation Yrotation Xrotation
					End Site
					{
						OFFSET 0.000000 0.000000 0.000000
					}
				}
			}
		}
	}
	JOINT Spine
	{
		OFFSET -0.002533 0.108963 -0.026696
		CHANNELS 3 Zrotation Yrotation Xrotation
		JOINT Spine1
		{
			OFFSET 0.005487 0.135180 0.001092
			CHANNELS 3 Zrotation Yrotation Xrotation
			JOINT Spine2
			{
				OFFSET 0.001457 0.052922 0.025425
				CHANNELS 3 Zrotation Yrotation Xrotation
				JOINT Neck
				{
					OFFSET -0.002778 0.213870 -0.042857
					CHANNELS 3 Zrotation Yrotation Xrotation
					JOINT Head
					{
						OFFSET 0.005152 0.064970 0.051349
						CHANNELS 3 Zrotation Yrotation Xrotation
						End Site
						{
							OFFSET 0.000000 0.000000 0.000000
						}
					}
				}
				JOINT LeftShoulder
				{
					OFFSET 0.078845 0.121749 -0.034090
					CHANNELS 3 Zrotation Yrotation Xrotation
					JOINT LeftArm
					{
						OFFSET 0.090977 0.030469 -0.008868
						CHANNELS 3 Zrotation Yrotation Xrotation
						JOINT LeftForeArm
						{
							OFFSET 0.259612 -0.012772 -0.027456
							CHANNELS 3 Zrotation Yrotation Xrotation
							JOINT LeftHand
							{
								OFFSET 0.249234 0.008986 -0.001171
								CHANNELS 3 Zrotation Yrotation Xrotation
								End Site
								{
									OFFSET 0.000000 0.000000 0.000000
								}
							}
						}
					}
				}
				JOINT RightShoulder
				{
					OFFSET -0.081759 0.118833 -0.038615
					CHANNELS 3 Zrotation Yrotation Xrotation
					JOINT RightArm
					{
						OFFSET -0.096012 0.032551 -0.009143
						CHANNELS 3 Zrotation Yrotation Xrotation
						JOINT RightForeArm
						{
							OFFSET -0.253742 -0.013329 -0.021401
							CHANNELS 3 Zrotation Yrotation Xrotation
							JOINT RightHand
							{
								OFFSET -0.255298 0.007772 -0.005559
								CHANNELS 3 Zrotation Yrotation Xrotation
								End Site
								{
									OFFSET 0.000000 0.000000 0.000000
								}
							}
						}
					}
				}
			}
		}
	}
}
MOTION
Frames: 13
Frame Time: 0.050000
-0.347097 0.914919 1.292396 -173.868225 55.702255 -173.871575 -2.880258 -0.558362 -5.644403 -4.655116 -7.302702 21.645985 28.116178 6.545205 11.270497 0.000000 0.000000 0.000000 2.825021 -1.616255 -4.745263 -49.465373 -27.515353 70.395314 24.900754 15.011630 45.654573 0.000000 0.000000 0.000000 -6.175449 -6.511168 24.259603 4.184370 2.159987 -26.733482 9.431250 9.822787 29.905723 -3.588294 3.976803 -20.454942 0.000000 0.000000 0.000000 -20.387062 -7.860818 -46.484022 -43.087265 34.089938 -10.998116 -39.727218 -22.463611 5.374283 0.000000 0.000000 0.000000 11.019854 -7.366698 16.360892 63.612614 15.583209 10.129475 -9.759891 42.338905 -0.822965 0.000000 0.000000 0.000000 
-0.290854 0.913066 1.255343 -172.363700 50.910447 -172.548634 -1.129689 -1.568340 -0.107760 -3.115748 -6.442122 19.882201 29.325176 3.582607 8.951435 0.000000 0.000000 0.000000 5.229922 -3.466787 -14.967713 -60.207341 -24.387347 76.727383 31.815100 24.315632 35.676856 0.000000 0.000000 0.000000 -5.457213 -8.507991 26.740136 4.112138 2.065979 -27.321423 9.356363 7.711351 29.741104 -4.372118 4.659483 -23.227856 0.000000 0.000000 0.000000 -18.872460 -7.448864 -45.756967 -44.348096 31.252938 -11.067487 -46.396115 -25.683841 7.884271 0.000000 0.000000 0.000000 10.792395 -9.567620 14.434711 62.793896 14.287350 9.787295 -8.817470 43.608090 0.044534 0.000000 0.000000 0.000000 
-0.227727 0.929229 1.211696 -171.456097 47.144314 -170.508345 0.860802 -4.356856 6.095206 -1.777919 -4.035904 14.203805 20.733196 1.017190 12.790153 0.000000 0.000000 0.000000 7.486074 -7.546505 -23.872759 -48.541997 -24.582529 65.886984 29.249996 26.816873 19.376536 0.000000 0.000000 0.000000 -3.122103 -8.561170 25.888826 2.940503 2.004140 -27.813591 8.871846 2.387894 29.284576 -7.249720 4.919668 -24.906244 0.000000 0.000000 0.000000 -16.767829 -4.910269 -44.749883 -47.074638 29.132056 -12.654488 -52.247868 -30.058611 10.524025 0.000000 0.000000 0.000000 8.381370 -9.110709 12.011434 63.022014 10.312970 9.458887 -6.282445 45.178234 1.541211 0.000000 0.000000 0.000000 
-0.156449 0.959580 1.160351 -170.451868 44.190043 -169.059090 2.448822 -8.302836 11.483411 -2.926207 -3.019059 10.541132 14.058366 3.843594 25.325642 0.000000 0.000000 0.000000 10.247946 -11.235931 -30.287931 -31.354520 -21.952157 49.566693 34.423737 23.973572 19.239008 0.000000 0.000000 0.000000 -0.800289 -8.603492 24.843097 1.627325 1.415125 -29.852985 8.980828 -2.123707 29.534946 -9.649884 4.509881 -25.286921 0.000000 0.000000 0.000000 -14.617930 -3.892363 -43.513507 -48.450140 29.305125 -14.533980 -58.695284 -30.609347 11.802519 0.000000 0.000000 0.000000 8.751507 -9.703470 11.333141 60.812973 7.635178 7.604027 -3.513964 46.943050 3.160062 0.000000 0.000000 0.000000 
-0.079749 0.991856 1.102826 -170.925764 41.909262 -169.209837 2.583635 -9.055533 11.972322 -3.439109 -4.119942 14.876677 9.039201 6.587606 37.066986 0.000000 0.000000 0.000000 11.155989 -11.489697 -30.731719 -14.965707 -17.179436 33.122778 32.143645 16.363885 19.262694 0.000000 0.000000 0.000000 1.326156 -7.993663 23.196937 2.608274 1.644725 -29.940828 6.814324 -3.466029 29.507063 -11.228236 2.765425 -24.703817 0.000000 0.000000 0.000000 -14.894918 -3.430302 -45.313513 -45.317319 31.996135 -14.244685 -65.460442 -26.665612 12.104085 0.000000 0.000000 0.000000 4.861745 -10.057122 8.583544 64.911807 2.967253 10.056157 -3.035069 46.095705 3.544557 0.000000 0.000000 0.000000 
-0.001301 1.014083 1.042086 -171.687553 38.692068 -171.662766 3.019643 -8.574333 9.879510 -5.394975 -7.447510 23.049641 10.190378 6.274345 48.270913 0.000000 0.000000 0.000000 10.311687 -8.847905 -26.232581 -6.514248 -11.518774 19.986880 25.954814 7.063413 23.673376 0.000000 0.000000 0.000000 2.246506 -9.116178 23.905837 1.188756 1.311104 -30.531545 7.821985 -3.363222 28.412604 -9.929106 1.167979 -21.504871 0.000000 0.000000 0.000000 -14.152957 -4.691328 -47.264509 -43.242980 35.755090 -14.732490 -69.357171 -21.815511 10.005983 0.000000 0.000000 0.000000 4.908312 -9.670814 10.354017 64.370967 1.408985 9.507497 -4.134763 47.792643 3.075339 0.000000 0.000000 0.000000 
0.077501 1.014534 0.980286 -173.181109 38.455730 -173.166412 3.249441 -5.279095 3.286745 -11.904973 -12.851903 32.735208 15.396460 5.013855 52.636922 0.000000 0.000000 0.000000 10.887626 -5.498094 -21.640697 -4.334311 -9.613475 15.307879 15.470161 3.693243 25.802481 0.000000 0.000000 0.000000 2.033010 -8.042997 22.834108 2.342109 1.767173 -29.780232 7.104966 -1.277483 27.486222 -8.962018 -1.660023 -17.162494 0.000000 0.000000 0.000000 -13.770268 -5.820072 -48.936319 -40.108370 39.908697 -14.674361 -69.401587 -17.918049 7.651637 0.000000 0.000000 0.000000 7.422170 -11.935525 12.374557 62.308465 1.883377 8.091223 -3.154471 47.713836 3.184176 0.000000 0.000000 0.000000 
0.155099 0.993288 0.918323 -173.744766 39.335655 -175.416875 4.482292 -3.578990 -4.555141 -25.885978 -17.719998 42.978447 27.792104 6.081278 51.750459 0.000000 0.000000 0.000000 11.958407 -1.930135 -15.332576 -5.218145 -11.124544 16.666987 11.387430 1.147425 19.448506 0.000000 0.000000 0.000000 1.761516 -8.785498 24.138985 0.080223 1.118242 -31.073934 10.481697 2.816423 28.443314 -8.768312 -4.645442 -13.654291 0.000000 0.000000 0.000000 -15.542860 -7.597655 -54.091893 -33.610822 46.648548 -12.027402 -67.478018 -14.505559 7.181390 0.000000 0.000000 0.000000 7.997656 -12.313085 14.959963 61.026885 5.589299 9.439281 -5.207389 46.881399 1.850264 0.000000 0.000000 0.000000 
0.227770 0.964715 0.857453 -174.624550 40.982703 -178.584608 4.373863 -3.488182 -13.114984 -35.504363 -19.836338 49.345573 43.599134 11.622451 46.185110 0.000000 0.000000 0.000000 13.087599 0.238733 -8.594330 -9.759580 -14.958222 22.619620 18.589932 2.236364 7.206832 0.000000 0.000000 0.000000 -0.052069 -9.445642 25.872014 0.762472 1.526468 -30.276678 11.636262 6.649803 29.169627 -6.458977 -3.733768 -15.875115 0.000000 0.000000 0.000000 -17.879210 -7.164748 -57.046945 -28.296901 48.435365 -8.646425 -63.852952 -11.999612 6.867805 0.000000 0.000000 0.000000 8.970811 -11.594959 17.411893 58.965022 11.246921 10.563098 -6.050609 45.737989 1.234833 0.000000 0.000000 0.000000 
0.298048 0.951924 0.797096 -174.730035 44.300545 -179.246418 4.979681 -5.399924 -20.328980 -30.529320 -17.952620 41.628538 45.349777 11.308531 44.459886 0.000000 0.000000 0.000000 13.361231 0.542776 -1.543470 -9.406087 -14.792595 22.312901 20.770314 3.354097 3.772211 0.000000 0.000000 0.000000 -0.607235 -9.050606 25.836604 -1.132857 0.924905 -30.797653 14.569411 10.233567 30.947176 -6.454627 -4.322777 -15.274494 0.000000 0.000000 0.000000 -18.420324 -8.257942 -58.424805 -26.246299 51.773870 -7.516750 -58.193965 -12.086917 5.918452 0.000000 0.000000 0.000000 8.739092 -10.821650 18.746213 58.748240 17.442496 14.226102 -8.647902 46.378135 0.551992 0.000000 0.000000 0.000000 
0.369831 0.960362 0.734592 -173.784484 47.449118 -177.977932 6.025867 -6.548761 -23.090064 -15.014942 -11.100698 25.519633 33.066718 8.159396 26.112921 0.000000 0.000000 0.000000 12.844216 -1.001797 5.162309 -7.188276 -12.188156 18.803218 19.441952 3.315293 10.365462 0.000000 0.000000 0.000000 -0.918744 -7.638261 24.213902 -2.278947 0.074110 -32.668771 17.455848 11.661998 33.642415 -5.863983 -4.228408 -15.877684 0.000000 0.000000 0.000000 -17.804337 -7.975158 -60.537010 -24.255088 54.321854 -6.831398 -55.504731 -9.773879 3.839608 0.000000 0.000000 0.000000 8.297951 -10.769372 19.768937 59.974451 21.697746 17.951533 -13.497183 47.671056 -0.650944 0.000000 0.000000 0.000000 
0.445518 0.977898 0.668851 -174.160494 49.167497 -177.212039 5.874699 -6.185480 -22.604235 -7.754352 -5.580296 6.273811 17.225729 3.657197 26.569928 0.000000 0.000000 0.000000 11.747888 -3.776449 11.064821 -7.058452 -8.909086 15.664140 16.030898 3.375053 19.809453 0.000000 0.000000 0.000000 -1.695488 -4.585153 19.749905 -1.967258 1.014600 -29.823977 16.497322 11.252682 31.447699 -4.963920 -4.688103 -14.650964 0.000000 0.000000 0.000000 -15.605082 -7.737057 -59.546803 -25.718401 56.597825 -9.287285 -53.955065 -8.825273 1.767819 0.000000 0.000000 0.000000 7.468630 -11.004055 18.682993 61.618209 21.891634 19.991190 -12.483592 51.196912 0.596324 0.000000 0.000000 0.000000 
0.525650 0.985791 0.600750 -174.760046 52.087194 -179.292803 5.766217 -4.410045 -18.104069 -5.880054 -5.402367 -2.412355 8.013473 6.586584 34.995780 0.000000 0.000000 0.000000 9.120866 -6.235295 15.291949 -7.874160 -9.543336 17.629698 9.316866 6.083090 36.267141 0.000000 0.000000 0.000000 -3.539685 -3.297106 17.603562 -1.150153 1.504609 -28.136897 15.398027 10.901511 31.374057 -1.064028 -4.263778 -12.698544 0.000000 0.000000 0.000000 -13.902596 -4.520457 -56.922648 -32.097605 57.602941 -15.511123 -54.251631 -9.270289 0.708273 0.000000 0.000000 0.000000 4.635973 -7.939113 17.655575 64.981228 20.413898 22.037665 -13.111030 54.965256 0.793975 0.000000 0.000000 0.000000 
